<?xml version="1.0" encoding="utf-8"?>
<!-- Generator: Adobe Illustrator 24.3.0, SVG Export Plug-In . SVG Version: 6.00 Build 0)  -->
<svg version="1.1" id="Шар_1" xmlns="http://www.w3.org/2000/svg" xmlns:xlink="http://www.w3.org/1999/xlink" x="0px" y="0px"
	 viewBox="0 0 1920 1080" style="enable-background:new 0 0 1920 1080;" xml:space="preserve">
<style type="text/css">
	.st0{fill:none;}
	.st1{fill:#EC644B;}
</style>
<g>
	<g>
		<path class="st0" d="M1039.7,1080c-94.5,0-189,0-283.5,0c0-359.2,0-718.4,0-1077.7c94.5,0,189,0,283.5,0
			c-91.8,179.5-183.6,359.1-276.5,540.9C858.1,727.6,948.9,903.8,1039.7,1080z"/>
		<path class="st1" d="M1119.3,72.6c-86.1,152.3-172.2,304.5-264.7,468c89.5,158.7,177.1,313.9,264.7,469.1c0,23.4,0,46.9,0,70.3
			c-14.5,0-29.1,0-43.6,0c-90.8-176.2-181.5-352.4-276.5-536.8c92.9-181.8,184.7-361.3,276.5-540.9
			C1142.9-12,1113.5,42.9,1119.3,72.6z"/>
	</g>
</g>
</svg>
