<svg version="1.1" id="Шар_1" xmlns="http://www.w3.org/2000/svg" x="0" y="0" viewBox="0 0 1920 1080" xml:space="preserve"><style>.st0{fill:none;stroke:#000;stroke-width:2;stroke-linecap:round;stroke-linejoin:round;stroke-miterlimit:10}</style><path d="M991.91 184.11c76.08 0 152.19-1.11 228.25.28 94.32 1.72 130.95 39.74 132.37 135.21.76 50.71-1.22 101.49.53 152.15 1.96 56.98-20.02 97.53-72.66 121.41-14.93 6.77-31.33 14.44-41.64 26.38-19.79 22.91-36.6 18.39-57.89 3.28-53.92-38.26-109.18-40.67-162.6.67-18.34 14.19-33.7 18.04-51.97 1.79-50.09-44.54-103.14-36.84-155.02-5.19-26.67 16.27-48.64 26.13-72.91-3.14-8.39-10.12-22.05-17.89-34.83-22.01-53.88-17.37-74.45-59.13-77.22-109.76-3.38-61.8-4.66-124.14-.55-185.83 4.85-72.98 46.79-111.97 121.02-114.43 81.63-2.7 163.42-.62 245.14-.62-.02-.06-.02-.12-.02-.19zm-.49 36.91v.13c-81.71 0-163.46-1.53-245.12.52-58.14 1.46-81.88 24.88-84.83 82.22-2.6 50.59-.19 101.41-.88 152.12-.5 37.4-2.76 79.52 37.39 95.29 38.8 15.24 68.07 58.19 126.65 25.78 49.44-27.36 113.89-16.71 166.95 16.85 52.36-40.53 116.28-37.07 169.04-19.06 40.25 13.74 62.16 3.12 95.01-9.07 49.6-18.4 61.66-50.49 59.6-97.83-2.32-53.44.5-107.08-.93-160.57-1.78-66.65-19.21-84.63-86.22-86-78.85-1.61-157.77-.38-236.66-.38zm2.81 691.57c-101.46.05-202.94.8-304.38-.64-18.17-.26-51.27-8.62-51.63-14.79-1.39-23.19 2.48-50.56 14.83-69.56 10.94-16.83 36.29-35.24 54.37-34.36 48.84 2.38 101.28-19.35 147.03 17.05 8.19 6.52 26.98 8.84 35.82 3.96 66.89-36.98 132.44-34.79 199.2-.33 8.07 4.16 23.94 5.23 29.52.25 41.46-37.02 91.91-19.97 138.1-22.83 19.62-1.22 46.53 10.28 59.05 25.26 16.51 19.74 32.83 50 29.79 73.2-4.16 31.8-40.21 22.22-64.23 22.42-95.8.77-191.64.32-287.47.37zm-84.47-50.69c55.22 17.18 110.24 18.05 165-2.13-2.17-4.94-2.94-12.12-6.72-14.48-48.63-30.32-99.72-18.51-150.19-6.31-4.47 1.08-5.95 14.49-8.82 22.18-2.53 2.62-5.06 5.25-7.59 7.87 1.92-.11 4.63.52 5.58-.5 1.53-1.64 1.89-4.36 2.74-6.63zm-67.8-.61c.62 2.31.74 4.98 2.05 6.78.77 1.04 3.46.67 5.29.94-2.63-2.39-5.26-4.77-7.89-7.16-7.63-10.41-14.61-29.13-23.02-29.79-38.58-3.03-77.69-2.8-116.28.36-10.54.86-19.92 15.96-31.83 26.25 60.71 23.53 116.17 19.37 171.68 2.62zm288.35 3.55c54.5 0 105.04.06 155.59-.07 7.3-.02 14.61-.94 21.91-1.44-5.43-9.09-10.74-25.97-16.31-26.05-48.76-.74-97.6 1-146.32 3.77-4.48.25-8.25 12.78-14.87 23.79z"/><path d="M992.75 655.77c34.15 1.73 63.14 33.96 60.94 67.74-2.27 34.88-32.25 60.24-69.26 58.58-37.13-1.67-64.14-30.87-60.91-65.87 3.1-33.65 35.75-62.15 69.23-60.45zm37.14 60.03c-21.29-9.77-34.55-20.01-47.96-20.21-6.52-.1-19.54 19.4-18.31 28.51 1.31 9.74 18.83 26.46 24.17 24.69 13.28-4.39 23.65-17.57 42.1-32.99zm-204.71 10.72c-4.22 33-36.45 58.04-71.16 55.29-34.55-2.74-65.17-34.22-63.18-64.94 2.23-34.44 42.06-66.12 76.59-60.93 32.83 4.94 61.64 40.15 57.75 70.58zm-65.48 34.96c11.93-18.47 24.29-30.29 26.17-43.59.95-6.7-21.41-24.77-25.71-22.63-12.39 6.18-25.38 18.7-29.19 31.41-1.96 6.61 14.95 18.87 28.73 34.81zm524.15-36.24c-2.14 34.6-31.11 58.59-68.47 56.71-35.27-1.78-66.18-31.71-64.74-62.68 1.64-35.32 39.68-67.76 74.22-63.3 33.16 4.27 60.99 36.95 58.99 69.27zm-62.82 36.55c10.76-20.09 21.96-32.9 23-46.48.49-6.41-23.26-22.54-27.73-19.95-11.97 6.93-24.14 20.63-26.85 33.6-1.45 6.92 16.52 17.89 31.58 32.83zm-124.35-406.47c-3.35 9.08-10.06 27.28-16.78 45.49-12.42 33.64-28.23 66.5-36.26 101.16-7.36 31.74-25.89 40.91-53.81 41.39-29.25.5-43.19-10.62-50-42.99-7.83-37.18-28.19-71.95-44.67-107.04-20.31-43.26-16.52-82.5 13.49-117.2 29.13-33.68 75.45-47.29 114.06-33.51 45.85 16.36 74.55 56.02 73.97 112.7zm-136.82 14.49c31.96 5.24 70.67 1.51 68.81 51.73-2.66 6.97-5.33 13.94-7.99 20.92 2.29-7.31 4.57-14.62 6.86-21.94 26.62-23.98 43.96-51.91 44.11-96.94-16.66 15.03-26.41 23.83-36.16 32.62-1.59-11.97-5.55-24.24-4.1-35.83 1.49-11.91 14.75-25.66 11.46-34.21-8.13-21.12-63.16-26.11-92.34-10.96-27.99 14.54-9.19 31.27-2.77 48.3 5.74 15.24 8.75 31.52 12.96 47.34l-45.36-37.29c-3.65 2.73-7.3 5.47-10.96 8.2 14.26 27.69 28.52 55.38 51.2 99.4 2.27-37.92 3.28-54.63 4.28-71.34zm37.01 155.49c2.19-4.87 8.4-12.17 7.11-17.73-1.23-5.29-11.74-13.33-15.58-12.09-7.81 2.51-13.87 10.46-20.66 16.16 6.83 3.21 13.67 6.42 29.13 13.66zM782.42 371.8c3.16 13.06 7.72 22.26 6.43 30.57-.65 4.23-11.8 6.84-18.21 10.18-3.88-8.3-9.97-16.44-10.58-24.98-.25-3.61 10.98-8.06 22.36-15.77zm372.59 46.19c-11.42-7.67-22.7-12.17-22.39-15.65.76-8.57 6.84-16.67 10.77-24.96 6.32 3.36 17.32 5.99 17.97 10.22 1.28 8.27-3.23 17.42-6.35 30.39zm-438.35.5c-7.24-10.34-15.24-17.38-16.67-25.57-.76-4.39 12.81-16.3 14.71-15.27 8.23 4.48 15.84 11.72 20.6 19.77 1.16 1.96-9.36 10.83-18.64 21.07zm138.62-24.41c-9.58 7.6-16.08 15.94-24.11 17.83-4.38 1.03-17.02-11.56-16.17-13.35 3.97-8.34 10.45-16.43 18.12-21.42 2.07-1.34 11.42 8.52 22.16 16.94zm349.7 24.36c-6.64-10.56-14.23-17.95-15.3-26.18-.58-4.43 10.02-10.31 15.57-15.54 6.39 6.98 14.59 13.17 18.15 21.37 1.2 2.76-9.35 10.64-18.42 20.35zm54.29-3.62c-5.02-8.85-13.04-18.79-11.39-20.82 5.46-6.67 14.42-10.48 22.04-15.38 2.91 6.67 9.27 14.25 7.8 19.75-1.57 5.88-10.51 9.81-18.45 16.45z"/><path d="M1026.12 307.01l-40.19 38.33c-3.07-9.7-8.18-19.34-8.49-29.13-.2-6.18 6.71-17.86 10.53-17.9 10.8-.11 21.64 4.5 38.15 8.7z"/><path class="st0" d="M1214.42 624.4c19.76-16.94 36.97-41.58 59.84-49.19 44.88-14.92 60.79-41.17 59.3-86.36-2.14-64.87 1.69-129.96-1.19-194.78-2.71-60.97-31.63-91.56-92.54-92.42-163.73-2.31-327.52-1.62-491.28-.38-65.42.5-108.01 44.28-109.84 109.71-1.42 50.78-2.14 101.73.24 152.44 2.39 51.12 8.36 99.44 75.35 112.1 22.37 4.23 40.44 31.28 60.72 48.1 64.85-46.56 132.46-70.94 201.8-7.23 20.3 18.65 24.15-2.24 34.28-9.01 62.73-41.92 127.33-36.36 194.86 17m76.23 262.61h42.35c0-14.12 5.02-31.02-.97-41.81-15.69-28.27-41.69-38.17-75.32-35.09-47.33 4.34-98.82-11.32-135.54 34.49-16.32 20.36-7.91 50.09 17.01 50.07 48-.05 96-4.84 144-7.66M875.6 853.11c-24.15-11.61-30.4-50.26-67.83-42.68-41.88 8.48-85.91-13.14-128.12 15.61-19.47 13.26-29.32 25.27-22.92 43.53 3.88 11.07 21.26 24.73 32.51 24.68 62.13-.29 124.24-4.43 186.36-7.26m288-152.47c17.96 20.54 36.97 44.92 67.19 32.48 14.63-6.02 31.29-26.29 32.28-41.1 1.09-16.3-10.82-39.74-24.51-48.74-10.54-6.92-35.51-.76-48.7 7.82-12.4 8.07-17.78 26.94-26.26 41.06m-127.06-16.93c-39.43-39.85-66.08-46.44-83.24-16.11-8.47 14.97-7.89 41.94.06 57.69 11.36 22.52 37 24.78 57.28 8.64 13.8-10.97 23.07-27.63 34.36-41.75"/><path class="st0" d="M1104.31 853.11c-47.6-63.23-116.62-42.01-177.76-39.43-17.74.75-34.65 36.15-49.68 57.27-1.15 1.62 15.76 23.43 24.13 23.34 67.79-.74 135.54-4.48 203.31-7.3m-76.24-423.53c16.94-31.06 35.7-61.29 50.33-93.4 15.53-34.08-3.45-90.99-33.39-109.89-27.86-17.59-93.11-8.27-118.59 16.94-32.67 32.33-47.82 81.45-24.13 109.01 25.71 29.9 38.42 76.63 91.84 78.59 24.59.9 41.78 23.93 32.84 49.18-9.41 26.55-38.81 21.08-57.86 16.04-29.59-7.83-20.15-30.24-8.81-49.54"/><path class="st0" d="M994.19 429.58c5.65-8.47 11.29-16.94 16.94-25.41-8.47-5.65-18.04-16.8-25.1-15.39-7.06 1.41-16.71 15.82-16.05 23.76.97 11.68 10.09 22.69 15.74 33.98m-67.77-144c14.12 22.59 28.24 45.18 42.35 67.76m101.65-59.29l-25.41 50.82m-288 313.41c-26.19 11.14-52.05 28.18-40.48 58.58 7.35 19.31 28.4 42.79 57.21 33.92 22.97-7.07 44.11-19.64 42.72-50.15-1.52-33.41-20.43-44.55-50.98-42.35"/></svg>