<?xml version="1.0" encoding="utf-8"?>
<!-- Generator: Adobe Illustrator 24.3.0, SVG Export Plug-In . SVG Version: 6.00 Build 0)  -->
<svg version="1.1" id="Шар_1" xmlns="http://www.w3.org/2000/svg" xmlns:xlink="http://www.w3.org/1999/xlink" x="0px" y="0px"
	 viewBox="0 0 1920 1080" style="enable-background:new 0 0 1920 1080;" xml:space="preserve">
<style type="text/css">
	.st0{fill:#FFFFFF;}
</style>
<g>
	<g>
		<path class="st0" d="M330.32,465.17c0,10.16-0.05,20.32,0.05,30.48c0.02,1.71-0.31,2.03-2.02,2.02c-19.32-0.08-38.64-0.08-57.96,0
			c-1.7,0.01-2.02-0.31-2.02-2.02c0.08-20.32,0.08-40.64,0-60.96c-0.01-1.71,0.31-2.03,2.02-2.02c19.32,0.08,38.64,0.08,57.96,0
			c1.7-0.01,2.04,0.31,2.02,2.02C330.27,444.85,330.32,455.01,330.32,465.17z M299.34,436.97c-11.16-0.14-19.63,10.24-17.3,21.17
			c1.36,6.35,5.08,11.34,9.53,15.72c8.34,8.22,6.86,7.71,14.68,0.14c4.49-4.35,8.17-9.34,9.64-15.66
			C318.35,447.75,310.14,437.1,299.34,436.97z M307.59,477.15c0.2,0.08,0.4,0.16,0.61,0.24c-0.34,0.77-0.47,1.89-1.06,2.25
			c-4.48,2.75-9.04,5.61-14.16,1.2c-0.12-0.1-0.29-0.15-0.44-0.22c-1.85-0.76-3.15-1.78-2.24-4.09c0.11-0.28-0.29-0.76-0.45-1.14
			c-0.26,0.16-0.67,0.26-0.75,0.48c-1.54,4.48-6.02,4.55-9.4,6.26c-0.49,0.25-1.18,0.11-1.77,0.16c0.12-0.6,0.12-1.26,0.37-1.8
			c1.78-3.84,3.62-7.66,5.39-11.5c0.16-0.34,0.03-0.82,0.03-1.23c-0.43,0.12-0.9,0.19-1.3,0.38c-0.28,0.13-0.57,0.4-0.69,0.68
			c-2.17,4.94-4.38,9.86-6.41,14.86c-0.52,1.28,0.42,1.76,1.63,1.29c2.74-1.07,5.53-2.05,8.18-3.32c2.26-1.09,4.29-1.35,6.39,0.25
			c4.82,3.69,9.68,3.92,14.66,0.2c2.35-1.76,4.84-1.44,7.4-0.18c2.34,1.15,4.81,2.07,7.25,3c0.52,0.2,1.19,0.01,1.79-0.01
			c-0.03-0.61,0.11-1.29-0.11-1.82c-1.82-4.38-3.69-8.74-5.58-13.1c-0.25-0.59-0.59-1.21-1.07-1.61c-0.45-0.38-1.12-0.49-1.7-0.72
			c0.08,0.53,0.03,1.12,0.25,1.59c1.84,4,3.74,7.97,5.54,11.98c0.12,0.26-0.68,1.21-0.7,1.2c-3.32-1.83-7.85-1.53-9.88-5.63
			c-0.26-0.53-0.83-0.91-1.25-1.36C307.96,476.02,307.77,476.59,307.59,477.15z"/>
		<path d="M299.34,436.97c10.8,0.13,19.01,10.79,16.55,21.37c-1.47,6.32-5.15,11.31-9.64,15.66c-7.82,7.58-6.34,8.08-14.68-0.14
			c-4.45-4.39-8.17-9.38-9.53-15.72C279.71,447.2,288.18,436.83,299.34,436.97z M314.97,454.74c-0.27-7.08-4.23-12.87-10.7-15.11
			c-6.14-2.13-11.66-0.85-16.28,3.59c-4.5,4.32-5.88,9.71-4.07,15.72c2.3,7.68,7.58,13.2,13.52,18.21c1.31,1.1,2.37,0.68,3.46-0.25
			c5.17-4.37,9.66-9.31,12.39-15.58C314.18,459.27,314.43,456.94,314.97,454.74z"/>
		<path d="M307.59,477.15c0.19-0.57,0.37-1.13,0.56-1.7c0.42,0.45,0.99,0.83,1.25,1.36c2.03,4.1,6.56,3.8,9.88,5.63
			c0.02,0.01,0.81-0.95,0.7-1.2c-1.8-4.01-3.71-7.98-5.54-11.98c-0.22-0.47-0.17-1.06-0.25-1.59c0.57,0.23,1.25,0.34,1.7,0.72
			c0.47,0.4,0.81,1.02,1.07,1.61c1.89,4.35,3.76,8.71,5.58,13.1c0.22,0.53,0.08,1.21,0.11,1.82c-0.6,0.01-1.27,0.21-1.79,0.01
			c-2.44-0.93-4.91-1.85-7.25-3c-2.56-1.26-5.05-1.58-7.4,0.18c-4.98,3.72-9.84,3.49-14.66-0.2c-2.1-1.6-4.12-1.34-6.39-0.25
			c-2.65,1.27-5.44,2.25-8.18,3.32c-1.21,0.47-2.16-0.01-1.63-1.29c2.03-5,4.24-9.92,6.41-14.86c0.12-0.28,0.41-0.54,0.69-0.68
			c0.4-0.19,0.86-0.26,1.3-0.38c0,0.41,0.13,0.89-0.03,1.23c-1.78,3.84-3.62,7.65-5.39,11.5c-0.25,0.54-0.25,1.19-0.37,1.8
			c0.59-0.04,1.28,0.09,1.77-0.16c3.37-1.71,7.86-1.78,9.4-6.26c0.08-0.22,0.49-0.32,0.75-0.48c0.16,0.39,0.56,0.87,0.45,1.14
			c-0.91,2.31,0.4,3.33,2.24,4.09c0.15,0.06,0.32,0.11,0.44,0.22c5.12,4.41,9.67,1.55,14.16-1.2c0.59-0.36,0.72-1.48,1.06-2.25
			C307.99,477.31,307.79,477.23,307.59,477.15z"/>
		<path class="st0" d="M314.97,454.74c-0.54,2.2-0.8,4.53-1.69,6.57c-2.73,6.27-7.22,11.21-12.39,15.58
			c-1.09,0.92-2.16,1.35-3.46,0.25c-5.94-5.01-11.22-10.53-13.52-18.21c-1.8-6.01-0.43-11.39,4.07-15.72
			c4.62-4.44,10.15-5.71,16.28-3.59C310.74,441.87,314.7,447.66,314.97,454.74z M298.86,445.42c-0.98,0-1.96,0-2.94,0
			c-7.06,0-7.49,0.3-9.32,7.1c-0.23,0.87-0.38,2.33,0.09,2.72c2.48,2.07,2.53,4.76,2.38,7.56c-0.13,2.31,0.98,3.26,3.21,3.24
			c4.58-0.03,9.15-0.03,13.73,0.01c2.12,0.02,2.87-1.04,2.82-3.05c-0.06-2.74-0.47-5.59,2.3-7.55c0.46-0.33,0.54-1.52,0.44-2.27
			c-0.79-5.94-2.9-7.77-8.78-7.76C301.47,445.42,300.17,445.42,298.86,445.42z"/>
		<path d="M298.86,445.42c1.31,0,2.61,0,3.92,0c5.88-0.01,8,1.83,8.78,7.76c0.1,0.75,0.02,1.94-0.44,2.27
			c-2.78,1.97-2.36,4.81-2.3,7.55c0.04,2.01-0.7,3.06-2.82,3.05c-4.58-0.04-9.15-0.04-13.73-0.01c-2.24,0.02-3.34-0.93-3.21-3.24
			c0.16-2.8,0.1-5.49-2.38-7.56c-0.47-0.39-0.32-1.85-0.09-2.72c1.83-6.8,2.26-7.1,9.32-7.1
			C296.9,445.42,297.88,445.42,298.86,445.42z M310.12,453.28c-0.83-1.7-1.86-3.88-2.96-6.03c-0.11-0.22-0.56-0.28-0.87-0.37
			c-1.74-0.48-2.51,0.32-2.89,2.9c-0.06,0.41-0.36,0.79-0.56,1.18c-0.32-0.3-0.65-0.58-0.95-0.9c-0.1-0.1-0.1-0.31-0.11-0.47
			c-0.13-1.68-0.84-2.72-2.71-2.78c-1.81-0.06-2.69,0.75-2.98,2.49c-0.08,0.48-0.6,0.89-0.92,1.33c-0.13-0.28-0.35-0.56-0.38-0.85
			c-0.13-1.22,0.41-2.72-1.61-2.94c-1.97-0.22-3.04,0.76-3.65,2.49c-0.27,0.77-0.63,1.5-0.92,2.27c-0.51,1.39-1.14,2.85,0.51,3.92
			c1.48,0.96,2.97,0.56,3.92-0.71c1.13-1.53,1.76-1.21,2.96-0.04c1.54,1.51,3.65,1.81,5.34,0.37c1.59-1.35,2.43-1.88,4.14,0.07
			C306.94,456.87,309.91,455.74,310.12,453.28z M302.76,464.21c4.43,0,4.73-0.22,4.66-3.45c-0.05-2.48-1.78-4.31-4.11-4.36
			c-2.82-0.05-5.12,1.87-5.18,4.34C298.06,464,298.33,464.2,302.76,464.21z M296.76,460.66c-0.13-1.56,0.49-3.7-1.99-4.16
			c-2.11-0.39-3.89,1.69-3.89,4.28c0,2.91,0.33,3.33,2.72,3.42C296.32,464.3,296.72,463.87,296.76,460.66z"/>
		<path class="st0" d="M310.12,453.28c-0.21,2.46-3.18,3.59-4.64,1.92c-1.71-1.96-2.54-1.43-4.14-0.07c-1.7,1.44-3.8,1.13-5.34-0.37
			c-1.2-1.17-1.82-1.49-2.96,0.04c-0.94,1.28-2.44,1.67-3.92,0.71c-1.65-1.07-1.02-2.53-0.51-3.92c0.28-0.76,0.64-1.5,0.92-2.27
			c0.61-1.73,1.68-2.7,3.65-2.49c2.02,0.22,1.49,1.73,1.61,2.94c0.03,0.29,0.25,0.57,0.38,0.85c0.32-0.44,0.84-0.85,0.92-1.33
			c0.29-1.74,1.17-2.55,2.98-2.49c1.87,0.06,2.58,1.1,2.71,2.78c0.01,0.16,0.02,0.36,0.11,0.47c0.29,0.32,0.63,0.6,0.95,0.9
			c0.19-0.39,0.49-0.77,0.56-1.18c0.38-2.57,1.15-3.38,2.89-2.9c0.31,0.09,0.76,0.15,0.87,0.37
			C308.26,449.4,309.29,451.58,310.12,453.28z"/>
		<path class="st0" d="M302.76,464.21c-4.43,0-4.71-0.21-4.63-3.46c0.06-2.47,2.36-4.39,5.18-4.34c2.33,0.04,4.06,1.88,4.11,4.36
			C307.5,463.99,307.2,464.21,302.76,464.21z"/>
		<path class="st0" d="M296.76,460.66c-0.05,3.22-0.44,3.64-3.16,3.54c-2.39-0.09-2.72-0.51-2.72-3.42c0-2.58,1.78-4.66,3.89-4.28
			C297.25,456.95,296.63,459.09,296.76,460.66z"/>
	</g>
</g>
</svg>
