<?xml version="1.0" encoding="utf-8"?>
<!-- Generator: Adobe Illustrator 24.3.0, SVG Export Plug-In . SVG Version: 6.00 Build 0)  -->
<svg version="1.1" id="Шар_1" xmlns="http://www.w3.org/2000/svg" xmlns:xlink="http://www.w3.org/1999/xlink" x="0px" y="0px"
	 viewBox="0 0 1920 1080" style="enable-background:new 0 0 1920 1080;" xml:space="preserve" fill="#ec644b">
<style type="text/css">
	.st0{fill:#FFFFFF;}
</style>
<g>
	<g>
		<path class="st0" d="M1485.2,1083c-349.5,0-699,0-1050.4,0c0-360.5,0-721.7,0-1086c348.9,0,699.6,0,1050.4,0
			C1485.2,357.2,1485.2,719.7,1485.2,1083z M771.8,552.3c-10.8,0-21.6-0.1-32.3-0.1c-0.8-71.6-4-143.4-2-214.9
			c3.9-137.3,86.7-222.2,209.7-219c122.9,3.2,202.9,91.1,207.2,223.7c3.8,116.7,10.9,233.2,16.2,349.8c0.2,5-2.9,10.1-5.3,17.7
			c-21.3-7.5-42.6-15-61.1-21.6c-140.9,85-172.8,84.8-315.1,0.9c-226.3,77.9-291.3,140.8-261.6,261.5
			c14.9-128.8,101.5-179.6,221.9-209.8C726.3,790,707,832,679,892.5c67.4-15.7,111.7-26,155.9-36.4c-1.2-6-2.3-12-3.5-18
			c-30.3,2.8-60.6,5.6-103.8,9.6c25.1-45.4,45.1-81.6,68.3-123.5c102.9,81.4,201.9,61.7,304,4.3c19.2,41.8,35.3,76.8,55,119.6
			c-45.4-3.9-76.9-6.7-108.5-9.4c-0.8,6.5-1.7,13-2.5,19.5c46.2,9.3,92.4,18.6,152.8,30.7c-20-57.3-35.2-100.9-57.2-163.9
			c63.1,37.6,115,57.2,150.4,93.1c33,33.4,48.5,84.1,79.3,141.4c3.2-87.9-23-150.1-84.6-184.1c-79-43.7-98-110.8-99-190.3
			c-1.1-87.8,3.1-175.8-1-263.4C1177.6,175,1055.7,75.4,910.4,93c-120,14.5-184.7,92.1-204.2,245.2c-89.5,75.4-89.5,124.8,0.4,200.3
			c37.5,31.4,76.5,61.1,112.4,94.2c82.7,76.1,152.5,86.1,225.2,29.6c81.5-63.4,112.3-194.8,57.5-286.8
			c-0.9,121.1,10.8,241.1-124.2,288c-51,17.7-94.3-1.3-128.8-47.4c54.9,5.6,104.7,10.6,161.3,16.3c0-32.3,0-52.8,0-85.2
			c-70.3,9-131.4,16.9-203.7,26.2c-7.9-66.5-15.2-127.9-22.4-189.2c-4,0.1-8.1,0.3-12.1,0.4C771.8,440.4,771.8,496.4,771.8,552.3z
			 M1118.9,350.3c-0.1-7.3-0.1-14.7-0.2-22c-21.7-5.3-43.4-10.6-63.7-15.6c-5.6-24.4-10.3-45.5-15.1-66.5
			c-5.8-3.6-11.7-7.2-17.5-10.8c-19.3,32.8-38.6,65.7-47.4,80.7c-83,4.5-140,7.7-197,10.8c0.8,7.1,1.5,14.2,2.3,21.3
			c77.2-10.9,158.3,24.3,212.8-17.5C1046.2,338.9,1082.5,344.6,1118.9,350.3z"/>
		<path d="M771.8,552.3c0-55.9,0-111.8,0-167.8c4-0.1,8.1-0.3,12.1-0.4c7.3,61.3,14.5,122.7,22.4,189.2
			c72.3-9.3,133.4-17.1,203.7-26.2c0,32.4,0,52.9,0,85.2c-56.6-5.7-106.5-10.8-161.3-16.3c34.4,46.1,77.7,65.1,128.8,47.4
			c135-46.9,123.3-166.9,124.2-288c54.8,92,24,223.4-57.5,286.8c-72.7,56.5-142.5,46.6-225.2-29.6c-35.9-33.1-75-62.8-112.4-94.2
			c-89.9-75.5-89.9-124.9-0.4-200.3C725.7,185.1,790.4,107.5,910.4,93c145.3-17.6,267.2,82.1,274.2,228.7
			c4.2,87.6-0.1,175.6,1,263.4c1,79.5,20,146.6,99,190.3c61.6,34,87.8,96.2,84.6,184.1c-30.8-57.3-46.3-108-79.3-141.4
			c-35.5-35.9-87.3-55.4-150.4-93.1c22,62.9,37.2,106.6,57.2,163.9c-60.4-12.1-106.6-21.4-152.8-30.7c0.8-6.5,1.7-13,2.5-19.5
			c31.5,2.7,63.1,5.5,108.5,9.4c-19.7-42.8-35.8-77.8-55-119.6c-102.2,57.4-201.1,77.1-304-4.3c-23.2,42-43.2,78.1-68.3,123.5
			c43.3-4,73.5-6.8,103.8-9.6c1.2,6,2.3,12,3.5,18c-44.3,10.3-88.6,20.6-155.9,36.4c28-60.5,47.3-102.5,70.2-152
			c-120.4,30.1-207,81-221.9,209.8C497.7,829.6,562.7,766.7,789,688.8c142.3,83.9,174.2,84.1,315.1-0.9c18.5,6.5,39.8,14,61.1,21.6
			c2.4-7.7,5.5-12.8,5.3-17.7c-5.3-116.6-12.4-233.2-16.2-349.8c-4.3-132.6-84.3-220.5-207.2-223.7c-123-3.2-205.8,81.7-209.7,219
			c-2,71.6,1.2,143.3,2,214.9C750.3,552.2,761,552.2,771.8,552.3z M683.5,493.8c6.1,0.3,12.2,0.6,18.3,0.8c0-35.1,0-70.2,0-105.3
			c-6.1,0.3-12.2,0.5-18.3,0.8C683.5,424.7,683.5,459.3,683.5,493.8z M913,582.2c0.3,6.4,0.6,12.9,0.9,19.3
			c23.1-1.2,46.2-2.3,69.3-3.5c-0.3-5.3-0.5-10.5-0.8-15.8C959.2,582.2,936.1,582.2,913,582.2z"/>
		<path d="M1118.9,350.3c-36.3-5.7-72.7-11.4-125.8-19.7c-54.5,41.8-135.6,6.6-212.8,17.5c-0.8-7.1-1.5-14.2-2.3-21.3
			c57-3.1,114-6.2,197-10.8c8.8-15,28.1-47.8,47.4-80.7c5.8,3.6,11.7,7.2,17.5,10.8c4.8,21,9.6,42.1,15.1,66.5
			c20.3,5,42,10.3,63.7,15.6C1118.8,335.6,1118.8,342.9,1118.9,350.3z"/>
		<path class="st0" d="M683.5,493.8c0-34.6,0-69.1,0-103.7c6.1-0.3,12.2-0.5,18.3-0.8c0,35.1,0,70.2,0,105.3
			C695.7,494.4,689.6,494.1,683.5,493.8z"/>
		<path class="st0" d="M913,582.2c23.1,0,46.3,0,69.4,0c0.3,5.3,0.5,10.5,0.8,15.8c-23.1,1.2-46.2,2.3-69.3,3.5
			C913.6,595.1,913.3,588.6,913,582.2z"/>
	</g>
</g>
</svg>
