<?xml version="1.0" standalone="no"?>
<!DOCTYPE svg PUBLIC "-//W3C//DTD SVG 20010904//EN"
 "http://www.w3.org/TR/2001/REC-SVG-20010904/DTD/svg10.dtd">
<svg version="1.0" xmlns="http://www.w3.org/2000/svg"
 width="96.000000pt" height="100.000000pt" viewBox="0 0 96.000000 100.000000"
 preserveAspectRatio="xMidYMid meet">

<g transform="translate(0.000000,100.000000) scale(0.100000,-0.100000)"
fill="#fff" stroke="none">
<path d="M434 986 c-3 -8 -4 -27 -1 -43 4 -27 5 -27 12 -5 9 25 20 29 29 7 3
-8 10 -15 16 -15 11 0 13 30 4 54 -8 20 -53 21 -60 2z m40 -4 c3 -5 -1 -9 -9
-9 -8 0 -12 4 -9 9 3 4 7 8 9 8 2 0 6 -4 9 -8z"/>
<path d="M518 994 c-5 -4 -8 -20 -8 -36 0 -30 17 -43 47 -35 16 4 15 6 -4 12
-15 5 -23 17 -25 37 -2 16 -6 26 -10 22z"/>
<path d="M344 975 c-4 -8 -10 -12 -16 -9 -5 3 -21 3 -35 -1 -21 -5 -24 -10
-21 -36 6 -38 -22 -58 -40 -28 -12 19 -32 26 -32 12 0 -5 9 -19 20 -33 l19
-25 38 19 c21 10 45 22 53 26 8 4 14 18 13 31 l-3 24 12 -23 c9 -19 17 -22 37
-17 34 9 34 9 26 44 -6 26 -11 31 -36 31 -17 0 -32 -6 -35 -15z m41 -5 c-3 -5
-12 -10 -18 -10 -7 0 -6 4 3 10 19 12 23 12 15 0z m-62 -35 c7 -16 -8 -29 -23
-20 -15 9 -12 35 4 35 8 0 16 -7 19 -15z m77 5 c0 -5 -7 -10 -15 -10 -8 0 -15
5 -15 10 0 6 7 10 15 10 8 0 15 -4 15 -10z"/>
<path d="M614 945 c-7 -29 10 -55 37 -55 10 0 20 -4 23 -8 2 -4 22 -7 43 -7
29 0 39 4 41 19 4 20 -21 46 -43 46 -7 0 -17 -12 -24 -26 -6 -15 -14 -24 -17
-21 -3 3 0 15 6 27 14 27 -2 50 -36 50 -17 0 -25 -7 -30 -25z m56 1 c0 -16
-14 -36 -26 -36 -14 0 -19 22 -7 33 7 8 33 10 33 3z m68 -44 c2 -7 -3 -12 -12
-12 -9 0 -16 7 -16 16 0 17 22 14 28 -4z"/>
<path d="M157 882 c-22 -24 -21 -35 2 -56 15 -14 24 -15 39 -7 21 11 34 35 25
45 -12 11 -21 6 -26 -16 -5 -18 -8 -19 -22 -8 -17 14 -15 35 3 35 7 0 12 4 13
10 1 17 -17 16 -34 -3z"/>
<path d="M761 870 c-13 -30 -8 -70 7 -56 4 4 7 11 7 14 1 19 17 30 38 25 l22
-6 -24 27 c-14 14 -27 26 -30 26 -4 0 -12 -14 -20 -30z"/>
<path d="M484 805 c-7 -16 2 -35 17 -35 5 0 9 7 9 15 0 20 8 19 48 -5 33 -20
71 -87 72 -124 0 -31 18 -6 29 39 7 33 9 35 10 13 2 -52 31 -25 31 28 0 28
-39 57 -80 60 -15 1 -37 7 -48 13 -30 16 -82 14 -88 -4z m161 -35 c27 -30 12
-34 -15 -5 -13 14 -19 25 -13 25 5 0 18 -9 28 -20z"/>
<path d="M53 713 l-38 -77 0 -131 c0 -127 1 -132 32 -195 40 -78 66 -114 82
-109 6 2 -3 24 -24 54 -55 76 -78 166 -73 280 4 87 7 101 45 175 27 53 36 80
27 80 -7 0 -30 -35 -51 -77z"/>
<path d="M850 780 c0 -7 8 -24 19 -38 38 -56 63 -144 64 -227 1 -96 -20 -170
-67 -245 -19 -30 -33 -56 -31 -59 25 -24 102 124 116 223 14 100 -2 205 -43
285 -31 60 -58 89 -58 61z"/>
<path d="M566 713 c9 -36 12 -39 20 -19 7 20 -1 46 -16 46 -6 0 -8 -11 -4 -27z"/>
<path d="M359 691 c-57 -36 -84 -67 -105 -116 -9 -22 -26 -53 -38 -70 -39 -53
-41 -61 -5 -34 19 15 48 54 66 90 20 40 52 81 85 111 61 55 60 60 -3 19z"/>
<path d="M448 675 c-9 -16 -40 -47 -69 -70 -61 -46 -75 -71 -36 -61 22 5 26 3
29 -21 4 -24 6 -22 17 20 10 36 22 54 47 70 36 24 45 42 34 72 -6 18 -8 17
-22 -10z"/>
<path d="M512 593 c-10 -35 -10 -49 4 -85 26 -70 29 -106 9 -128 -24 -26 -1
-26 25 0 24 24 25 37 5 104 -8 28 -18 74 -23 101 l-9 50 -11 -42z"/>
<path d="M433 594 c-3 -9 -1 -31 5 -48 16 -44 16 -44 -23 -60 -19 -8 -35 -20
-35 -27 0 -7 7 -8 18 -4 44 19 71 17 96 -8 14 -14 28 -21 31 -16 8 11 -3 30
-27 47 -10 7 -18 23 -18 35 0 35 -20 97 -31 97 -5 0 -12 -7 -16 -16z"/>
<path d="M704 565 c42 -101 45 -165 10 -237 -14 -31 -15 -40 -4 -53 22 -26 38
-17 54 32 24 70 21 140 -9 200 -26 52 -68 100 -51 58z"/>
<path d="M600 520 c0 -14 11 -49 25 -78 14 -30 25 -73 25 -95 1 -40 1 -41 16
-22 22 29 13 79 -30 155 -28 50 -36 59 -36 40z"/>
<path d="M202 408 c-16 -16 -15 -35 2 -41 10 -4 18 4 25 24 11 31 -3 41 -27
17z"/>
<path d="M360 360 c-14 -4 -45 -8 -69 -9 -77 -2 -32 -20 54 -22 84 -3 105 3
105 27 0 16 -47 18 -90 4z"/>
<path d="M415 299 c-45 -21 -96 -24 -126 -9 -26 14 -25 -4 1 -30 27 -27 56
-25 117 10 79 45 85 66 8 29z"/>
<path d="M169 164 c-10 -13 -9 -19 12 -38 41 -38 70 -50 80 -35 6 11 9 9 9 -7
0 -20 10 -28 75 -54 20 -8 31 -8 33 -1 2 7 9 5 19 -4 8 -8 25 -15 38 -15 18 0
22 4 18 20 -3 11 0 20 6 20 6 0 11 -9 11 -20 0 -16 7 -20 31 -20 41 0 119 20
144 37 11 7 28 13 38 13 9 0 20 7 23 15 4 8 13 15 22 15 13 0 12 3 -3 20 -14
16 -15 20 -4 20 8 0 20 -5 27 -12 10 -10 17 -8 34 9 18 18 19 24 8 37 -16 20
-37 20 -47 2 -8 -15 -149 -91 -170 -92 -31 -2 -35 -5 -30 -24 3 -13 0 -20 -9
-20 -8 0 -14 10 -14 23 -1 19 -2 20 -13 6 -10 -14 -14 -14 -25 -3 -7 8 -24 14
-38 14 -21 0 -24 -4 -19 -20 4 -14 2 -20 -8 -20 -10 0 -13 7 -10 19 7 28 -26
36 -37 8 -8 -21 -9 -21 -9 5 -1 21 -7 28 -31 33 -16 4 -32 6 -35 5 -4 0 -15
10 -26 24 -11 15 -26 26 -34 26 -7 0 -15 7 -19 15 -7 19 -30 19 -47 -1z m41
-15 c0 -5 -7 -9 -15 -9 -15 0 -20 12 -9 23 8 8 24 -1 24 -14z m567 -5 c-9 -9
-28 6 -21 18 4 6 10 6 17 -1 6 -6 8 -13 4 -17z m-541 -31 c-10 -10 -19 5 -10
18 6 11 8 11 12 0 2 -7 1 -15 -2 -18z m452 -38 c-3 -3 -9 2 -12 12 -6 14 -5
15 5 6 7 -7 10 -15 7 -18z m-367 0 c11 6 11 5 2 -5 -12 -14 -33 -6 -33 13 0 8
3 7 9 -2 5 -8 14 -10 22 -6z m344 5 c3 -5 1 -10 -4 -10 -6 0 -11 5 -11 10 0 6
2 10 4 10 3 0 8 -4 11 -10z m-85 -35 c0 -8 -4 -15 -10 -15 -5 0 -10 7 -10 15
0 8 5 15 10 15 6 0 10 -7 10 -15z m-73 -21 c-3 -3 -12 -4 -19 -1 -8 3 -5 6 6
6 11 1 17 -2 13 -5z"/>
</g>
</svg>
