<svg width="625" height="625" viewBox="0 0 625 625" fill="none" xmlns="http://www.w3.org/2000/svg">
<circle cx="312.5" cy="312.5" r="240.5" transform="rotate(-68.5994 312.5 312.5)" fill="#176C60"/>
<path d="M275.192 409.207C273.008 407.385 271.616 405.135 271.017 402.457L251.354 311.211L220.97 347.642C218.933 350.084 216.147 351.465 212.612 351.785C209.205 352.212 206.217 351.353 203.647 349.21C201.077 347.066 199.578 344.291 199.151 340.885C198.96 337.457 199.936 334.457 202.079 331.887L295.805 219.509C298.056 216.811 300.831 215.312 304.13 215.013C307.558 214.822 310.557 215.798 313.127 217.941C315.698 220.085 317.132 222.806 317.431 226.106C317.858 229.513 316.946 232.565 314.695 235.264L283.185 273.045L373.427 271.828C376.512 271.786 379.212 272.73 381.525 274.659C383.966 276.696 385.229 279.492 385.314 283.049C385.633 286.584 384.775 289.572 382.739 292.014C380.381 294.841 377.306 296.307 373.514 296.413L273.663 297.787L295.122 397.067C295.956 401.031 295.087 404.555 292.515 407.639C290.264 410.338 287.425 411.783 283.997 411.974C280.697 412.273 277.762 411.351 275.192 409.207Z" fill="#FFFEF9"/>
<rect x="344" y="0.999992" width="30" height="257" rx="12" fill="white"/>
<rect x="344" y="313" width="30" height="30" rx="15" fill="white"/>
</svg>
