<?xml version="1.0" encoding="utf-8"?>
<!-- Generator: Adobe Illustrator 24.3.0, SVG Export Plug-In . SVG Version: 6.00 Build 0)  -->
<svg version="1.1" id="Шар_1" xmlns="http://www.w3.org/2000/svg" xmlns:xlink="http://www.w3.org/1999/xlink" x="0px" y="0px"
	 viewBox="0 0 1920 1080" style="enable-background:new 0 0 1920 1080;" xml:space="preserve">
<style type="text/css">
	.st0{fill:none;stroke:#000000;stroke-width:2;stroke-linecap:round;stroke-linejoin:round;stroke-miterlimit:10;}
</style>
<g>
	<g>
		<path d="M991.91,184.11c76.08,0,152.19-1.11,228.25,0.28c94.32,1.72,130.95,39.74,132.37,135.21
			c0.76,50.71-1.22,101.49,0.53,152.15c1.96,56.98-20.02,97.53-72.66,121.41c-14.93,6.77-31.33,14.44-41.64,26.38
			c-19.79,22.91-36.6,18.39-57.89,3.28c-53.92-38.26-109.18-40.67-162.6,0.67c-18.34,14.19-33.7,18.04-51.97,1.79
			c-50.09-44.54-103.14-36.84-155.02-5.19c-26.67,16.27-48.64,26.13-72.91-3.14c-8.39-10.12-22.05-17.89-34.83-22.01
			c-53.88-17.37-74.45-59.13-77.22-109.76c-3.38-61.8-4.66-124.14-0.55-185.83c4.85-72.98,46.79-111.97,121.02-114.43
			c81.63-2.7,163.42-0.62,245.14-0.62C991.91,184.24,991.91,184.18,991.91,184.11z M991.42,221.02c0,0.04,0,0.08,0,0.13
			c-81.71,0-163.46-1.53-245.12,0.52c-58.14,1.46-81.88,24.88-84.83,82.22c-2.6,50.59-0.19,101.41-0.88,152.12
			c-0.5,37.4-2.76,79.52,37.39,95.29c38.8,15.24,68.07,58.19,126.65,25.78c49.44-27.36,113.89-16.71,166.95,16.85
			c52.36-40.53,116.28-37.07,169.04-19.06c40.25,13.74,62.16,3.12,95.01-9.07c49.6-18.4,61.66-50.49,59.6-97.83
			c-2.32-53.44,0.5-107.08-0.93-160.57c-1.78-66.65-19.21-84.63-86.22-86C1149.23,219.79,1070.31,221.02,991.42,221.02z"/>
		<path d="M994.23,912.59c-101.46,0.05-202.94,0.8-304.38-0.64c-18.17-0.26-51.27-8.62-51.63-14.79
			c-1.39-23.19,2.48-50.56,14.83-69.56c10.94-16.83,36.29-35.24,54.37-34.36c48.84,2.38,101.28-19.35,147.03,17.05
			c8.19,6.52,26.98,8.84,35.82,3.96c66.89-36.98,132.44-34.79,199.2-0.33c8.07,4.16,23.94,5.23,29.52,0.25
			c41.46-37.02,91.91-19.97,138.1-22.83c19.62-1.22,46.53,10.28,59.05,25.26c16.51,19.74,32.83,50,29.79,73.2
			c-4.16,31.8-40.21,22.22-64.23,22.42C1185.9,912.99,1090.06,912.54,994.23,912.59z M909.76,861.9
			c55.22,17.18,110.24,18.05,165-2.13c-2.17-4.94-2.94-12.12-6.72-14.48c-48.63-30.32-99.72-18.51-150.19-6.31
			c-4.47,1.08-5.95,14.49-8.82,22.18c-2.53,2.62-5.06,5.25-7.59,7.87c1.92-0.11,4.63,0.52,5.58-0.5
			C908.55,866.89,908.91,864.17,909.76,861.9z M841.96,861.29c0.62,2.31,0.74,4.98,2.05,6.78c0.77,1.04,3.46,0.67,5.29,0.94
			c-2.63-2.39-5.26-4.77-7.89-7.16c-7.63-10.41-14.61-29.13-23.02-29.79c-38.58-3.03-77.69-2.8-116.28,0.36
			c-10.54,0.86-19.92,15.96-31.83,26.25C730.99,882.2,786.45,878.04,841.96,861.29z M1130.31,864.84c54.5,0,105.04,0.06,155.59-0.07
			c7.3-0.02,14.61-0.94,21.91-1.44c-5.43-9.09-10.74-25.97-16.31-26.05c-48.76-0.74-97.6,1-146.32,3.77
			C1140.7,841.3,1136.93,853.83,1130.31,864.84z"/>
		<path d="M992.75,655.77c34.15,1.73,63.14,33.96,60.94,67.74c-2.27,34.88-32.25,60.24-69.26,58.58
			c-37.13-1.67-64.14-30.87-60.91-65.87C926.62,682.57,959.27,654.07,992.75,655.77z M1029.89,715.8
			c-21.29-9.77-34.55-20.01-47.96-20.21c-6.52-0.1-19.54,19.4-18.31,28.51c1.31,9.74,18.83,26.46,24.17,24.69
			C1001.07,744.4,1011.44,731.22,1029.89,715.8z"/>
		<path d="M825.18,726.52c-4.22,33-36.45,58.04-71.16,55.29c-34.55-2.74-65.17-34.22-63.18-64.94
			c2.23-34.44,42.06-66.12,76.59-60.93C800.26,660.88,829.07,696.09,825.18,726.52z M759.7,761.48
			c11.93-18.47,24.29-30.29,26.17-43.59c0.95-6.7-21.41-24.77-25.71-22.63c-12.39,6.18-25.38,18.7-29.19,31.41
			C729.01,733.28,745.92,745.54,759.7,761.48z"/>
		<path d="M1283.85,725.24c-2.14,34.6-31.11,58.59-68.47,56.71c-35.27-1.78-66.18-31.71-64.74-62.68
			c1.64-35.32,39.68-67.76,74.22-63.3C1258.02,660.24,1285.85,692.92,1283.85,725.24z M1221.03,761.79
			c10.76-20.09,21.96-32.9,23-46.48c0.49-6.41-23.26-22.54-27.73-19.95c-11.97,6.93-24.14,20.63-26.85,33.6
			C1188,735.88,1205.97,746.85,1221.03,761.79z"/>
		<path d="M1096.68,355.32c-3.35,9.08-10.06,27.28-16.78,45.49c-12.42,33.64-28.23,66.5-36.26,101.16
			c-7.36,31.74-25.89,40.91-53.81,41.39c-29.25,0.5-43.19-10.62-50-42.99c-7.83-37.18-28.19-71.95-44.67-107.04
			c-20.31-43.26-16.52-82.5,13.49-117.2c29.13-33.68,75.45-47.29,114.06-33.51C1068.56,258.98,1097.26,298.64,1096.68,355.32z
			 M959.86,369.81c31.96,5.24,70.67,1.51,68.81,51.73c-2.66,6.97-5.33,13.94-7.99,20.92c2.29-7.31,4.57-14.62,6.86-21.94
			c26.62-23.98,43.96-51.91,44.11-96.94c-16.66,15.03-26.41,23.83-36.16,32.62c-1.59-11.97-5.55-24.24-4.1-35.83
			c1.49-11.91,14.75-25.66,11.46-34.21c-8.13-21.12-63.16-26.11-92.34-10.96c-27.99,14.54-9.19,31.27-2.77,48.3
			c5.74,15.24,8.75,31.52,12.96,47.34c-15.12-12.43-30.24-24.86-45.36-37.29c-3.65,2.73-7.3,5.47-10.96,8.2
			c14.26,27.69,28.52,55.38,51.2,99.4C957.85,403.23,958.86,386.52,959.86,369.81z M996.87,525.3c2.19-4.87,8.4-12.17,7.11-17.73
			c-1.23-5.29-11.74-13.33-15.58-12.09c-7.81,2.51-13.87,10.46-20.66,16.16C974.57,514.85,981.41,518.06,996.87,525.3z"/>
		<path d="M782.42,371.8c3.16,13.06,7.72,22.26,6.43,30.57c-0.65,4.23-11.8,6.84-18.21,10.18c-3.88-8.3-9.97-16.44-10.58-24.98
			C759.81,383.96,771.04,379.51,782.42,371.8z"/>
		<path d="M1155.01,417.99c-11.42-7.67-22.7-12.17-22.39-15.65c0.76-8.57,6.84-16.67,10.77-24.96c6.32,3.36,17.32,5.99,17.97,10.22
			C1162.64,395.87,1158.13,405.02,1155.01,417.99z"/>
		<path d="M716.66,418.49c-7.24-10.34-15.24-17.38-16.67-25.57c-0.76-4.39,12.81-16.3,14.71-15.27c8.23,4.48,15.84,11.72,20.6,19.77
			C736.46,399.38,725.94,408.25,716.66,418.49z"/>
		<path d="M855.28,394.08c-9.58,7.6-16.08,15.94-24.11,17.83c-4.38,1.03-17.02-11.56-16.17-13.35c3.97-8.34,10.45-16.43,18.12-21.42
			C835.19,375.8,844.54,385.66,855.28,394.08z"/>
		<path d="M1204.98,418.44c-6.64-10.56-14.23-17.95-15.3-26.18c-0.58-4.43,10.02-10.31,15.57-15.54
			c6.39,6.98,14.59,13.17,18.15,21.37C1224.6,400.85,1214.05,408.73,1204.98,418.44z"/>
		<path d="M1259.27,414.82c-5.02-8.85-13.04-18.79-11.39-20.82c5.46-6.67,14.42-10.48,22.04-15.38c2.91,6.67,9.27,14.25,7.8,19.75
			C1276.15,404.25,1267.21,408.18,1259.27,414.82z"/>
		<path d="M1026.12,307.01c-25.9,24.7-33.04,31.51-40.19,38.33c-3.07-9.7-8.18-19.34-8.49-29.13c-0.2-6.18,6.71-17.86,10.53-17.9
			C998.77,298.2,1009.61,302.81,1026.12,307.01z"/>
		<path class="st0" d="M1214.42,624.4c19.76-16.94,36.97-41.58,59.84-49.19c44.88-14.92,60.79-41.17,59.3-86.36
			c-2.14-64.87,1.69-129.96-1.19-194.78c-2.71-60.97-31.63-91.56-92.54-92.42c-163.73-2.31-327.52-1.62-491.28-0.38
			c-65.42,0.5-108.01,44.28-109.84,109.71c-1.42,50.78-2.14,101.73,0.24,152.44c2.39,51.12,8.36,99.44,75.35,112.1
			c22.37,4.23,40.44,31.28,60.72,48.1c64.85-46.56,132.46-70.94,201.8-7.23c20.3,18.65,24.15-2.24,34.28-9.01
			c62.73-41.92,127.33-36.36,194.86,17"/>
		<path class="st0" d="M1282.19,886.99c14.12,0,28.24,0,42.35,0c0-14.12,5.02-31.02-0.97-41.81
			c-15.69-28.27-41.69-38.17-75.32-35.09c-47.33,4.34-98.82-11.32-135.54,34.49c-16.32,20.36-7.91,50.09,17.01,50.07
			c48-0.05,96-4.84,144-7.66"/>
		<path class="st0" d="M875.6,853.11c-24.15-11.61-30.4-50.26-67.83-42.68c-41.88,8.48-85.91-13.14-128.12,15.61
			c-19.47,13.26-29.32,25.27-22.92,43.53c3.88,11.07,21.26,24.73,32.51,24.68c62.13-0.29,124.24-4.43,186.36-7.26"/>
		<path class="st0" d="M1163.6,734.52c17.96,20.54,36.97,44.92,67.19,32.48c14.63-6.02,31.29-26.29,32.28-41.1
			c1.09-16.3-10.82-39.74-24.51-48.74c-10.54-6.92-35.51-0.76-48.7,7.82c-12.4,8.07-17.78,26.94-26.26,41.06"/>
		<path class="st0" d="M1036.54,709.11c-39.43-39.85-66.08-46.44-83.24-16.11c-8.47,14.97-7.89,41.94,0.06,57.69
			c11.36,22.52,37,24.78,57.28,8.64c13.8-10.97,23.07-27.63,34.36-41.75"/>
		<path class="st0" d="M1104.31,853.11c-47.6-63.23-116.62-42.01-177.76-39.43c-17.74,0.75-34.65,36.15-49.68,57.27
			c-1.15,1.62,15.76,23.43,24.13,23.34c67.79-0.74,135.54-4.48,203.31-7.3"/>
		<path class="st0" d="M1028.07,463.46c16.94-31.06,35.7-61.29,50.33-93.4c15.53-34.08-3.45-90.99-33.39-109.89
			c-27.86-17.59-93.11-8.27-118.59,16.94c-32.67,32.33-47.82,81.45-24.13,109.01c25.71,29.9,38.42,76.63,91.84,78.59
			c24.59,0.9,41.78,23.93,32.84,49.18c-9.41,26.55-38.81,21.08-57.86,16.04c-29.59-7.83-20.15-30.24-8.81-49.54"/>
		<path class="st0" d="M994.19,429.58c5.65-8.47,11.29-16.94,16.94-25.41c-8.47-5.65-18.04-16.8-25.1-15.39
			c-7.06,1.41-16.71,15.82-16.05,23.76c0.97,11.68,10.09,22.69,15.74,33.98"/>
		<path class="st0" d="M917.95,302.52c14.12,22.59,28.24,45.18,42.35,67.76"/>
		<path class="st0" d="M1061.95,310.99c-8.47,16.94-16.94,33.88-25.41,50.82"/>
		<path class="st0" d="M748.54,675.22c-26.19,11.14-52.05,28.18-40.48,58.58c7.35,19.31,28.4,42.79,57.21,33.92
			c22.97-7.07,44.11-19.64,42.72-50.15c-1.52-33.41-20.43-44.55-50.98-42.35"/>
	</g>
</g>
</svg>
