<svg xmlns="http://www.w3.org/2000/svg" viewBox="0 0 1920 1080"><path fill="#fff" d="M330.32 465.17c0 10.16-.05 20.32.05 30.48.02 1.71-.31 2.03-2.02 2.02a6998.7 6998.7 0 00-57.96 0c-1.7.01-2.02-.31-2.02-2.02.08-20.32.08-40.64 0-60.96-.01-1.71.31-2.03 2.02-2.02 19.32.08 38.64.08 57.96 0 1.7-.01 2.04.31 2.02 2.02-.1 10.16-.05 20.32-.05 30.48zm-30.98-28.2c-11.16-.14-19.63 10.24-17.3 21.17 1.36 6.35 5.08 11.34 9.53 15.72 8.34 8.22 6.86 7.71 14.68.14 4.49-4.35 8.17-9.34 9.64-15.66 2.46-10.59-5.75-21.24-16.55-21.37zm8.25 40.18c.2.08.4.16.61.24-.34.77-.47 1.89-1.06 2.25-4.48 2.75-9.04 5.61-14.16 1.2-.12-.1-.29-.15-.44-.22-1.85-.76-3.15-1.78-2.24-4.09.11-.28-.29-.76-.45-1.14-.26.16-.67.26-.75.48-1.54 4.48-6.02 4.55-9.4 6.26-.49.25-1.18.11-1.77.16.12-.6.12-1.26.37-1.8 1.78-3.84 3.62-7.66 5.39-11.5.16-.34.03-.82.03-1.23-.43.12-.9.19-1.3.38-.28.13-.57.4-.69.68-2.17 4.94-4.38 9.86-6.41 14.86-.52 1.28.42 1.76 1.63 1.29 2.74-1.07 5.53-2.05 8.18-3.32 2.26-1.09 4.29-1.35 6.39.25 4.82 3.69 9.68 3.92 14.66.2 2.35-1.76 4.84-1.44 7.4-.18 2.34 1.15 4.81 2.07 7.25 3 .52.2 1.19.01 1.79-.01-.03-.61.11-1.29-.11-1.82-1.82-4.38-3.69-8.74-5.58-13.1-.25-.59-.59-1.21-1.07-1.61-.45-.38-1.12-.49-1.7-.72.08.53.03 1.12.25 1.59 1.84 4 3.74 7.97 5.54 11.98.12.26-.68 1.21-.7 1.2-3.32-1.83-7.85-1.53-9.88-5.63-.26-.53-.83-.91-1.25-1.36-.16.58-.35 1.15-.53 1.71z"/><path d="M299.34 436.97c10.8.13 19.01 10.79 16.55 21.37-1.47 6.32-5.15 11.31-9.64 15.66-7.82 7.58-6.34 8.08-14.68-.14-4.45-4.39-8.17-9.38-9.53-15.72-2.33-10.94 6.14-21.31 17.3-21.17zm15.63 17.77c-.27-7.08-4.23-12.87-10.7-15.11-6.14-2.13-11.66-.85-16.28 3.59-4.5 4.32-5.88 9.71-4.07 15.72 2.3 7.68 7.58 13.2 13.52 18.21 1.31 1.1 2.37.68 3.46-.25 5.17-4.37 9.66-9.31 12.39-15.58.89-2.05 1.14-4.38 1.68-6.58z"/><path d="M307.59 477.15c.19-.57.37-1.13.56-1.7.42.45.99.83 1.25 1.36 2.03 4.1 6.56 3.8 9.88 5.63.02.01.81-.95.7-1.2-1.8-4.01-3.71-7.98-5.54-11.98-.22-.47-.17-1.06-.25-1.59.57.23 1.25.34 1.7.72.47.4.81 1.02 1.07 1.61 1.89 4.35 3.76 8.71 5.58 13.1.22.53.08 1.21.11 1.82-.6.01-1.27.21-1.79.01-2.44-.93-4.91-1.85-7.25-3-2.56-1.26-5.05-1.58-7.4.18-4.98 3.72-9.84 3.49-14.66-.2-2.1-1.6-4.12-1.34-6.39-.25-2.65 1.27-5.44 2.25-8.18 3.32-1.21.47-2.16-.01-1.63-1.29 2.03-5 4.24-9.92 6.41-14.86.12-.28.41-.54.69-.68.4-.19.86-.26 1.3-.38 0 .41.13.89-.03 1.23-1.78 3.84-3.62 7.65-5.39 11.5-.25.54-.25 1.19-.37 1.8.59-.04 1.28.09 1.77-.16 3.37-1.71 7.86-1.78 9.4-6.26.08-.22.49-.32.75-.48.16.39.56.87.45 1.14-.91 2.31.4 3.33 2.24 4.09.15.06.32.11.44.22 5.12 4.41 9.67 1.55 14.16-1.2.59-.36.72-1.48 1.06-2.25-.24-.09-.44-.17-.64-.25z"/><path class="st0" d="M314.97 454.74c-.54 2.2-.8 4.53-1.69 6.57-2.73 6.27-7.22 11.21-12.39 15.58-1.09.92-2.16 1.35-3.46.25-5.94-5.01-11.22-10.53-13.52-18.21-1.8-6.01-.43-11.39 4.07-15.72 4.62-4.44 10.15-5.71 16.28-3.59 6.48 2.25 10.44 8.04 10.71 15.12zm-16.11-9.32h-2.94c-7.06 0-7.49.3-9.32 7.1-.23.87-.38 2.33.09 2.72 2.48 2.07 2.53 4.76 2.38 7.56-.13 2.31.98 3.26 3.21 3.24 4.58-.03 9.15-.03 13.73.01 2.12.02 2.87-1.04 2.82-3.05-.06-2.74-.47-5.59 2.3-7.55.46-.33.54-1.52.44-2.27-.79-5.94-2.9-7.77-8.78-7.76h-3.93z"/><path d="M298.86 445.42h3.92c5.88-.01 8 1.83 8.78 7.76.1.75.02 1.94-.44 2.27-2.78 1.97-2.36 4.81-2.3 7.55.04 2.01-.7 3.06-2.82 3.05-4.58-.04-9.15-.04-13.73-.01-2.24.02-3.34-.93-3.21-3.24.16-2.8.1-5.49-2.38-7.56-.47-.39-.32-1.85-.09-2.72 1.83-6.8 2.26-7.1 9.32-7.1h2.95zm11.26 7.86c-.83-1.7-1.86-3.88-2.96-6.03-.11-.22-.56-.28-.87-.37-1.74-.48-2.51.32-2.89 2.9-.06.41-.36.79-.56 1.18-.32-.3-.65-.58-.95-.9-.1-.1-.1-.31-.11-.47-.13-1.68-.84-2.72-2.71-2.78-1.81-.06-2.69.75-2.98 2.49-.08.48-.6.89-.92 1.33-.13-.28-.35-.56-.38-.85-.13-1.22.41-2.72-1.61-2.94-1.97-.22-3.04.76-3.65 2.49-.27.77-.63 1.5-.92 2.27-.51 1.39-1.14 2.85.51 3.92 1.48.96 2.97.56 3.92-.71 1.13-1.53 1.76-1.21 2.96-.04 1.54 1.51 3.65 1.81 5.34.37 1.59-1.35 2.43-1.88 4.14.07 1.46 1.66 4.43.53 4.64-1.93zm-7.36 10.93c4.43 0 4.73-.22 4.66-3.45-.05-2.48-1.78-4.31-4.11-4.36-2.82-.05-5.12 1.87-5.18 4.34-.07 3.26.2 3.46 4.63 3.47zm-6-3.55c-.13-1.56.49-3.7-1.99-4.16-2.11-.39-3.89 1.69-3.89 4.28 0 2.91.33 3.33 2.72 3.42 2.72.1 3.12-.33 3.16-3.54z"/><path class="st0" d="M310.12 453.28c-.21 2.46-3.18 3.59-4.64 1.92-1.71-1.96-2.54-1.43-4.14-.07-1.7 1.44-3.8 1.13-5.34-.37-1.2-1.17-1.82-1.49-2.96.04-.94 1.28-2.44 1.67-3.92.71-1.65-1.07-1.02-2.53-.51-3.92.28-.76.64-1.5.92-2.27.61-1.73 1.68-2.7 3.65-2.49 2.02.22 1.49 1.73 1.61 2.94.03.29.25.57.38.85.32-.44.84-.85.92-1.33.29-1.74 1.17-2.55 2.98-2.49 1.87.06 2.58 1.1 2.71 2.78.01.16.02.36.11.47.29.32.63.6.95.9.19-.39.49-.77.56-1.18.38-2.57 1.15-3.38 2.89-2.9.31.09.76.15.87.37 1.1 2.16 2.13 4.34 2.96 6.04zm-7.36 10.93c-4.43 0-4.71-.21-4.63-3.46.06-2.47 2.36-4.39 5.18-4.34 2.33.04 4.06 1.88 4.11 4.36.08 3.22-.22 3.44-4.66 3.44z"/><path class="st0" d="M296.76 460.66c-.05 3.22-.44 3.64-3.16 3.54-2.39-.09-2.72-.51-2.72-3.42 0-2.58 1.78-4.66 3.89-4.28 2.48.45 1.86 2.59 1.99 4.16z"/></svg>